<?xml version="1.0" encoding="utf-8"?>
<!-- Generator: Adobe Illustrator 26.0.1, SVG Export Plug-In . SVG Version: 6.00 Build 0)  -->
<svg version="1.1" id="Layer_1" xmlns="http://www.w3.org/2000/svg" xmlns:xlink="http://www.w3.org/1999/xlink" x="0px" y="0px"
	 viewBox="0 0 512 512" style="enable-background:new 0 0 512 512;" xml:space="preserve">
<style type="text/css">
	.st0{fill:#5C2D91;stroke:#5C2D91;stroke-width:5;stroke-miterlimit:10;}
	.st1{clip-path:url(#SVGID_00000156585034044224690120000000698375785435658136_);}
	.st2{clip-path:url(#SVGID_00000003091621134570887820000008462859102834805152_);fill:#FFFFFF;}
	.st3{fill:#5C2D91;}
</style>
<path class="st0" d="M465.6,503.8H50.2c-22.1,0-40.1-17.9-40.1-40.1V48.3c0-22.1,17.9-40.1,40.1-40.1h415.4
	c22.1,0,40.1,17.9,40.1,40.1v415.4C505.7,485.8,487.7,503.8,465.6,503.8z"/>
<g>
	<defs>
		<path id="SVGID_1_" d="M464.6,503.8H51.2c-22.7,0-41.1-18.4-41.1-41.1V49.3c0-22.7,18.4-41.1,41.1-41.1h413.4
			c22.7,0,41.1,18.4,41.1,41.1v413.4C505.7,485.4,487.3,503.8,464.6,503.8z"/>
	</defs>
	<clipPath id="SVGID_00000155141112977587435600000001894224555198894002_">
		<use xlink:href="#SVGID_1_"  style="overflow:visible;"/>
	</clipPath>
	<g style="clip-path:url(#SVGID_00000155141112977587435600000001894224555198894002_);">
		<defs>
			<path id="SVGID_00000027584532041395517610000015667907704056871859_" d="M390.6,523.6L20,507.5C-8.8,503.8,4.6,233.9,4.6,170.4
				l-2.7-41.1C1.9,65.8,41.8,8.2,105.4,8.2h285.2c63.6,0,115.1,51.5,115.1,115.1v285.2C505.7,472.1,454.1,523.6,390.6,523.6z"/>
		</defs>
		<clipPath id="SVGID_00000130631608508327398110000003293482417424359587_">
			<use xlink:href="#SVGID_00000027584532041395517610000015667907704056871859_"  style="overflow:visible;"/>
		</clipPath>
		<path style="clip-path:url(#SVGID_00000130631608508327398110000003293482417424359587_);fill:#FFFFFF;" d="M322.3,512.3
			c18.1-3.4,17.8,2.9,26.5-3.5c41.7-30.7,63.3-80.9,85-128c26.1-56.7,39.8-116.3,43.5-178.5c1.9-32.6,0.4-65-5.4-97.2
			c-4.2-23.5-11.1-46.3-20.3-68.4c-0.8-1.9-3.1-4.2-4.9-4.3c-1.8-0.2-4,1.8-5.8,3.2c-1,0.8-1.6,2.2-2.4,3.3
			c-16.4,23.1-33.1,45.9-53.8,65.6c-14.9,14.2-30.2,27.9-47.4,39.3c-33.6,22.3-70.7,35.9-109.9,44.3c-8.6,1.8-17.3,3.5-26.1,4.8
			c-1.7,0.3-4.5-0.6-5.4-1.9c-0.8-1.2,0.4-3.6,0.8-5.5c0.1-0.4,0.5-0.7,0.8-1.1c28.6-36.5,47.7-77.4,57.6-122.6c0.5-2.5,2-5.9-1.5-7
			c-1.8-0.6-4.9,0.6-6.5,2c-15.3,13-31.5,24.6-48.9,34.4c-56,31.4-129.9,44.5-193.8,37.7c-34.9-3.7,0,356.8,0,374.9"/>
	</g>
</g>
<path class="st3" d="M61.3,213.8h83.5c9.1,0,17.7,1.4,25.6,4.3c7.9,2.9,14.9,6.9,20.7,11.9c5.9,5.1,10.5,11,13.9,17.7
	c3.4,6.8,5.1,14,5.1,21.8c0,11.3-2.7,20.8-8.2,28.5c-5.5,7.7-12.3,13.5-20.4,17.4v2.4c10.9,4,19.7,10.2,26.4,18.6
	c6.7,8.4,10,18.9,10,31.4c0,9.1-1.8,17.3-5.5,24.6c-3.7,7.3-8.7,13.5-15.1,18.6c-6.4,5.2-13.8,9.1-22.2,11.9
	c-8.4,2.8-17.5,4.2-27.3,4.2H61.3V213.8z M141.8,300.8c9.3,0,16.5-2.5,21.6-7.6c5.1-5.1,7.6-11.1,7.6-18c0-7-2.5-12.9-7.5-17.9
	c-5-5-11.8-7.5-20.6-7.5h-41.4v51H141.8z M146.3,390.2c10.1,0,17.9-2.5,23.2-7.6c5.4-5.1,8-11.6,8-19.5c0-7.9-2.7-14.6-8.2-19.8
	c-5.5-5.3-13.6-7.9-24.3-7.9h-43.5v54.8H146.3z"/>
<path class="st3" d="M388.3,384.2c-7.3,12.8-17.1,23.2-29.4,31.2c-12.3,7.9-27.4,11.9-45.1,11.9c-12,0-23.1-2.1-33.2-6.3
	c-10.2-4.2-19-10-26.5-17.5c-7.5-7.5-13.3-16.3-17.5-26.5c-4.2-10.2-6.3-21.4-6.3-33.6c0-11.3,2-22.1,6.1-32.3
	c4.1-10.2,9.7-19.1,17-26.7c7.3-7.6,15.9-13.6,25.9-18.1c10-4.5,20.9-6.7,32.9-6.7c12.6,0,23.9,2.1,33.7,6.3
	c9.8,4.2,18.1,10,24.7,17.3c6.6,7.4,11.7,16.1,15.1,26.2c3.4,10.1,5.1,21,5.1,32.8c0,1.5,0,2.8,0,3.9c-0.2,1.3-0.3,2.5-0.3,3.5
	c-0.2,1.1-0.3,2.2-0.3,3.5H271.7c0.9,6.4,2.6,11.9,5.3,16.5c2.7,4.6,6,8.5,10,11.6c4,3.1,8.3,5.4,13,6.7c4.7,1.4,9.5,2.1,14.5,2.1
	c9.6,0,17.6-2.2,23.9-6.6c6.3-4.4,11.3-9.9,14.9-16.5L388.3,384.2z M350.1,323.2c-0.2-2.8-1.1-5.9-2.7-9.3c-1.6-3.4-4-6.6-7.1-9.6
	c-3.1-3-7-5.5-11.6-7.4c-4.6-1.9-10.1-2.9-16.5-2.9c-9,0-16.9,2.6-23.8,7.7c-6.9,5.1-11.7,12.3-14.5,21.5H350.1z"/>
</svg>
